<svg width="39" height="41" viewBox="0 0 39 41" fill="none" xmlns="http://www.w3.org/2000/svg">
<path d="M5.48289 11.9115C8.51101 11.9115 10.9658 9.4567 10.9658 6.42857C10.9658 3.40044 8.51101 0.945648 5.48289 0.945648C2.45477 0.945648 0 3.40044 0 6.42857C0 9.4567 2.45477 11.9115 5.48289 11.9115Z" fill="#FFAE00"/>
<path d="M33.4262 11.9115C36.4544 11.9115 38.9091 9.45673 38.9091 6.4286C38.9091 3.40047 36.4544 0.945679 33.4262 0.945679C30.3981 0.945679 27.9434 3.40047 27.9434 6.4286C27.9434 9.45673 30.3981 11.9115 33.4262 11.9115Z" fill="#FFAE00"/>
<path d="M33.4946 15.0689C30.5029 15.0689 28.0787 17.4943 28.0787 20.4849V20.5371C27.7087 29.0628 25.272 33.6809 21.8535 35.9156C24.5592 37.0608 27.4794 37.424 30.268 36.6772C31.4642 35.885 32.4572 35.0496 33.2131 34.2949C36.888 30.62 38.9116 25.734 38.9116 20.5371V20.4849C38.9116 17.4932 36.4863 15.0689 33.4957 15.0689H33.4946Z" fill="#FF7B00"/>
<path d="M30.27 36.6759C21.3595 39.065 11.0918 30.1137 10.833 20.5359V20.4837C10.833 17.492 8.40763 15.0677 5.41706 15.0677C2.42536 15.0677 0 17.4931 0 20.4848V20.537C0 25.7339 2.02473 30.6187 5.69853 34.2937C10.0987 38.6939 19.774 43.4243 30.2688 36.6759H30.27Z" fill="#FFAE00"/>
</svg>
